<svg xmlns="http://www.w3.org/2000/svg" viewBox="0 0 448 512" class="{{ .class }}"><path fill="currentColor" d="M12.8 344h262.3A12.8 12.8 0 0 0 288 331.2v-22.3A12.8 12.8 0 0 0 275.2 296H12.8A12.8 12.8 0 0 0 0 308.8v22.3A12.8 12.8 0 0 0 12.8 344zm0-256h262.3A12.8 12.8 0 0 0 288 75.2V52.8A12.8 12.8 0 0 0 275.2 40H12.8A12.8 12.8 0 0 0 0 52.8v22.3A12.8 12.8 0 0 0 12.8 88zM432 168H16a16 16 0 0 0 -16 16v16a16 16 0 0 0 16 16h416a16 16 0 0 0 16-16v-16a16 16 0 0 0 -16-16zm0 256H16a16 16 0 0 0 -16 16v16a16 16 0 0 0 16 16h416a16 16 0 0 0 16-16v-16a16 16 0 0 0 -16-16z"/></svg>