<svg xmlns="http://www.w3.org/2000/svg" viewBox="0 0 448 512"class="{{ .class }}"><!--!Font Awesome Free 6.6.0 by @fontawesome - https://fontawesome.com License - https://fontawesome.com/license/free Copyright 2024 Fonticons, Inc.--><path fill="currentColor" d="M443.5 190.1l4.3-24c1.3-7.4-4.3-14.1-11.8-14.1h-89l18.9-105.9c1.3-7.4-4.3-14.1-11.8-14.1h-24.4a12 12 0 0 0 -11.8 9.9L298.2 152h-111.2l18.9-105.9c1.3-7.4-4.3-14.1-11.8-14.1h-24.4a12 12 0 0 0 -11.8 9.9L138.2 152H44.9a12 12 0 0 0 -11.8 9.9l-4.3 24C27.4 193.2 33.1 200 40.6 200h89l-20 112H16.3a12 12 0 0 0 -11.8 9.9l-4.3 24C-1.1 353.2 4.5 360 12 360h89L82.1 465.9C80.8 473.2 86.5 480 94 480h24.4a12 12 0 0 0 11.8-9.9L149.8 360h111.2l-18.9 105.9c-1.3 7.4 4.3 14.1 11.8 14.1h24.4a12 12 0 0 0 11.8-9.9L309.8 360h93.3a12 12 0 0 0 11.8-9.9l4.3-24c1.3-7.4-4.3-14.1-11.8-14.1H318.4l20-112h93.3a12 12 0 0 0 11.8-9.9zM269.6 312H158.4l20-112h111.2l-20 112z"/></svg>