<svg xmlns="http://www.w3.org/2000/svg" viewBox="0 0 384 512"  class="{{ .class }}"><!--!Font Awesome Pro 6.7.1 by @fontawesome - https://fontawesome.com License - https://fontawesome.com/license (Commercial License) Copyright 2024 Fonticons, Inc.--><path fill="currentColor" d="M312 24a24 24 0 0 0 -48 0v88h48zM120 24a24 24 0 0 0 -48 0v88h48zM368 144H16A16 16 0 0 0 0 160v16a16 16 0 0 0 16 16H32v64c0 80.1 59.1 145.9 136 157.6V512h48V413.6C292.9 401.9 352 336.1 352 256V192h16a16 16 0 0 0 16-16V160A16 16 0 0 0 368 144zM304 256a112 112 0 0 1 -224 0V192H304z"/></svg>