<svg xmlns="http://www.w3.org/2000/svg" viewBox="0 0 512 512" class="{{ .class }}"><path fill="currentColor" d="M288 512h-64c-22.1 0-40-17.9-40-40v-92.4l-90.9 46.8c-19.1 10.8-43.7 4.3-54.8-14.5L5.6 356.5c-5.5-9.3-7-20.1-4.2-30.5 2.8-10.4 9.6-19.1 19.1-24.4L101 256l-80.7-45.6c-9.4-5.3-16.2-14-19-24.4-2.8-10.4-1.3-21.2 4.1-30.5l32.8-55.5c11.2-18.8 35.7-25.3 54.8-14.5L184 132.4V40c0-22.1 17.9-40 40-40h64c22.1 0 40 17.9 40 40v92.4l90.9-46.8c19.1-10.8 43.7-4.3 54.8 14.5l32.7 55.5c5.5 9.3 7 20.1 4.2 30.5-2.8 10.4-9.6 19.1-19.1 24.4L411 256l80.6 45.5c9.5 5.3 16.3 14 19.1 24.4 2.8 10.4 1.3 21.2-4.1 30.5l-32.8 55.5c-11.1 18.8-35.7 25.3-54.8 14.5L328 379.7V472c0 22.1-17.9 40-40 40zm-56-48h48V297.4l156.2 83.7 24.7-41.8L305.3 256l155.5-83.3-24.7-41.8L280 214.6V48h-48v166.6L75.8 130.9l-24.7 41.8L206.7 256 51.1 339.3l24.7 41.8L232 297.4V464z"/></svg>