<svg xmlns="http://www.w3.org/2000/svg" viewBox="0 0 384 512" class="{{ .class }}"><!--!Font Awesome Free 6.7.1 by @fontawesome - https://fontawesome.com License - https://fontawesome.com/license/free Copyright 2024 Fonticons, Inc.--><path 
fill="currentColor"
d="M320 32a32 32 0 0 0 -64 0v96h64zm48 128H16A16 16 0 0 0 0 176v32a16 16 0 0 0 16 16H32v32A160.1 160.1 0 0 0 160 412.8V512h64V412.8A160.1 160.1 0 0 0 352 256V224h16a16 16 0 0 0 16-16V176A16 16 0 0 0 368 160zM128 32a32 32 0 0 0 -64 0v96h64z"/></svg>